:SAMPLES-PER-SECOND 30
:FULLY-SPECIFIED
:DEGREES
467
root  -6.1995 38.7709 10.681 -179.98 28.8625 175.637
RightUpLeg  -17.3439 -14.4085 -13.3869
RightLeg  32.9308 -1.4463 -1.25343
RightFoot  -4.6267 -1.47372 24.2199
RightToes  -1.74624e-010 0 -3.6325e-017
Spine  7.67117 -0.609442 -8.4484
Spine1  23.1036 -1.66062 0.274582
HEad  -13.0482 25.9586 -12.5514
LeftShoulder1  0.858626 -0.580481 -14.082
LeftArm  15.3319 -5.91235 -58.2778
LeftForeArm  55.0692 -78.5623 -70.4887
LeftHand  -2.33549 -2.61338 33.2741
RightShoulder  0.704083 0.293339 11.4574
RightArm  14.0672 -16.1442 63.2744
RightForeArm  146.709 67.2965 153.897
RightHand  -0.903045 4.25914 -11.1079
LeftUpLeg  -10.2116 5.02321 1.48979
LeftLeg  24.1675 7.80158 4.16288
LeftFoot  -12.6023 -0.0287207 -9.47338
LeftToes  3.7286e-011 -1.5702e-010 -9.70233e-012
468
root  -6.25375 39.079 10.75 -179.378 28.2695 175.552
RightUpLeg  -15.7695 -13.934 -10.9527
RightLeg  33.4659 -0.390157 -0.528941
RightFoot  -5.86123 -1.24065 24.6961
RightToes  -1.74624e-010 0 -3.6325e-017
Spine  7.01652 -0.703814 -8.76741
Spine1  22.5769 -1.81426 0.553795
HEad  -12.756 25.4831 -11.8438
LeftShoulder1  0.783456 -0.336284 -13.4014
LeftArm  14.3373 -5.32009 -58.4542
LeftForeArm  58.9573 -78.801 -74.3587
LeftHand  -2.35709 -2.62829 33.5047
RightShoulder  0.704614 0.309177 11.3866
RightArm  14.479 -16.5845 63.4088
RightForeArm  146.637 67.073 154.156
RightHand  -0.819594 3.94436 -10.4319
LeftUpLeg  -9.83729 4.96325 1.34984
LeftLeg  21.2854 7.58681 3.56242
LeftFoot  -10.1996 0.156585 -9.51613
LeftToes  3.7286e-011 -1.5702e-010 -9.70233e-012
469
root  -6.27959 39.3302 10.8146 -178.878 27.9174 175.509
RightUpLeg  -13.8454 -12.3366 -8.71353
RightLeg  32.6813 -1.09616 -0.994717
RightFoot  -6.66158 -0.972878 22.4003
RightToes  -1.74624e-010 0 -3.6325e-017
Spine  6.19411 -0.704581 -8.59997
Spine1  22.3766 -1.73442 0.692617
HEad  -12.391 25.0736 -11.5298
LeftShoulder1  0.736664 -0.17114 -13.0087
LeftArm  14.0338 -4.6425 -58.2942
LeftForeArm  63.1809 -78.9963 -78.3842
LeftHand  -2.35653 -2.68923 33.2594
RightShoulder  0.70699 0.354164 11.2136
RightArm  14.5657 -16.5348 63.4816
RightForeArm  146.445 67.1169 154.081
RightHand  -0.746672 3.66736 -9.80829
LeftUpLeg  -9.31124 4.82514 1.3687
LeftLeg  18.5795 7.59978 2.98283
LeftFoot  -8.21055 0.314153 -9.69428
LeftToes  3.7286e-011 -1.5702e-010 -9.70233e-012
470
root  -6.28483 39.5027 10.8794 -178.433 27.4696 175.856
RightUpLeg  -11.313 -10.9308 -6.52773
RightLeg  29.9623 -4.14863 -2.79536
RightFoot  -7.85661 -0.605087 17.814
RightToes  -1.74624e-010 0 -3.6325e-017
Spine  5.48472 -0.726438 -7.753
Spine1  22.2827 -1.66153 0.988191
HEad  -11.879 24.7584 -11.4422
LeftShoulder1  0.734868 -0.1937 -12.8196
LeftArm  14.186 -3.64666 -58.0238
LeftForeArm  66.8877 -79.1208 -81.8478
LeftHand  -2.3379 -2.69916 32.9737
RightShoulder  0.70383 0.382467 10.9723
RightArm  14.5135 -16.0749 63.3663
RightForeArm  146.109 67.2277 153.909
RightHand  -0.732828 3.53089 -9.76854
LeftUpLeg  -8.66663 4.63308 1.76682
LeftLeg  16.2789 7.54097 2.45914
LeftFoot  -7.15938 0.391784 -9.5425
LeftToes  3.7286e-011 -1.5702e-010 -9.70233e-012
471
root  -6.26691 39.5157 10.9674 -178.358 26.9243 176.088
RightUpLeg  -8.80674 -9.36022 -5.02621
RightLeg  26.5252 -8.60453 -4.86669
RightFoot  -10.0165 -0.225609 13.6406
RightToes  -1.74624e-010 0 -3.6325e-017
Spine  4.99943 -0.733271 -6.90893
Spine1  22.298 -1.57097 1.18203
HEad  -11.4654 24.3494 -11.2866
LeftShoulder1  0.757053 -0.327049 -12.6962
LeftArm  14.6285 -2.4567 -57.9912
LeftForeArm  69.3918 -79.1784 -84.3327
LeftHand  -2.29038 -2.60076 32.7162
RightShoulder  0.691909 0.352344 10.785
RightArm  14.2937 -15.3066 62.9812
RightForeArm  146.142 67.1734 153.978
RightHand  -0.774676 3.63509 -10.1963
LeftUpLeg  -8.31957 4.31311 2.00055
LeftLeg  15.3367 7.42525 2.31221
LeftFoot  -7.39486 0.359004 -9.11186
LeftToes  3.7286e-011 -1.5702e-010 -9.70233e-012
472
root  -6.25915 39.408 11.0755 -178.726 26.8233 175.973
RightUpLeg  -7.11768 -7.02815 -4.44089
RightLeg  24.1031 -12.3375 -6.20199
RightFoot  -12.2591 0.0176382 12.0839
RightToes  -1.74624e-010 0 -3.6325e-017
Spine  4.61568 -0.591592 -6.0604
Spine1  22.7418 -1.15326 0.834723
HEad  -11.5117 23.7449 -11.1425
LeftShoulder1  0.796902 -0.505273 -12.8234
LeftArm  15.1755 -1.38069 -58.1095
LeftForeArm  69.7909 -79.1862 -84.6981
LeftHand  -2.23352 -2.49148 32.3679
RightShoulder  0.673548 0.251993 10.7772
RightArm  13.7861 -14.0709 62.3793
RightForeArm  146.424 67.0364 154.175
RightHand  -0.835377 3.91195 -10.6632
LeftUpLeg  -8.29437 3.68544 1.86492
LeftLeg  15.7998 7.93089 2.68176
LeftFoot  -8.39086 0.278889 -8.87756
LeftToes  3.7286e-011 -1.5702e-010 -9.70233e-012
473
root  -6.2812 39.2909 11.1897 -179.216 27.5869 175.862
RightUpLeg  -6.52206 -4.98661 -4.31562
RightLeg  23.4104 -13.533 -6.55328
RightFoot  -13.5999 0.153674 12.4541
RightToes  -1.74624e-010 0 -3.6325e-017
Spine  4.26354 -0.267547 -4.86145
Spine1  23.648 -0.332639 -0.0480328
HEad  -12.0216 23.1888 -11.3567
LeftShoulder1  0.876053 -0.782118 -13.441
LeftArm  15.5257 -0.149381 -58.2302
LeftForeArm  67.4168 -79.1441 -81.7591
LeftHand  -2.22485 -2.51415 32.1618
RightShoulder  0.659249 0.146689 10.9197
RightArm  13.0344 -12.2914 61.7632
RightForeArm  146.087 67.1512 153.997
RightHand  -0.906595 4.18829 -11.2273
LeftUpLeg  -8.39723 3.42579 1.76087
LeftLeg  16.9647 8.81649 3.27327
LeftFoot  -9.34533 0.213186 -9.02191
LeftToes  3.7286e-011 -1.5702e-010 -9.70233e-012
474
root  -6.31449 39.2439 11.2946 -179.451 28.886 176.141
RightUpLeg  -6.52276 -4.49953 -4.09055
RightLeg  23.4317 -12.5562 -6.11193
RightFoot  -13.7993 0.176737 12.569
RightToes  -1.74624e-010 0 -3.6325e-017
Spine  4.0653 0.0862162 -3.50132
Spine1  24.5239 0.451054 -0.75585
HEad  -12.5162 23.0591 -11.9232
LeftShoulder1  0.987273 -1.12231 -14.4364
LeftArm  15.4968 1.95107 -58.5878
LeftForeArm  63.3021 -79.0064 -76.8766
LeftHand  -2.26344 -2.59634 32.3706
RightShoulder  0.656049 0.106025 11.0491
RightArm  12.2889 -10.4422 61.3638
RightForeArm  145.163 67.5995 153.339
RightHand  -0.993251 4.37635 -12.0436
LeftUpLeg  -8.55809 4.11955 2.08263
LeftLeg  18.1516 9.2471 3.68639
LeftFoot  -9.77722 0.184822 -9.23527
LeftToes  3.7286e-011 -1.5702e-010 -9.70233e-012
475
root  -6.32716 39.284 11.378 -179.438 29.9869 176.591
RightUpLeg  -6.50836 -5.03107 -3.76411
RightLeg  23.0725 -11.2861 -5.44561
RightFoot  -13.1705 0.100341 11.8381
RightToes  -1.74624e-010 0 -3.6325e-017
Spine  4.0552 0.313898 -2.74495
Spine1  24.9282 0.743953 -0.684272
HEad  -12.5299 23.4057 -12.3072
LeftShoulder1  1.07265 -1.31222 -15.4619
LeftArm  15.3532 5.02514 -59.3794
LeftForeArm  60.364 -78.8614 -73.834
LeftHand  -2.2668 -2.5426 32.6234
RightShoulder  0.651732 0.0717361 11.11
RightArm  11.7188 -9.3428 61.2372
RightForeArm  144.879 67.9464 152.867
RightHand  -1.05751 4.47142 -12.6834
LeftUpLeg  -8.67809 5.04909 2.58756
LeftLeg  18.8226 9.41021 3.87928
LeftFoot  -9.44442 0.210557 -9.29469
LeftToes  3.7286e-011 -1.5702e-010 -9.70233e-012
476
root  -6.31139 39.3814 11.4298 -179.392 30.5437 176.785
RightUpLeg  -6.36871 -5.32299 -3.60086
RightLeg  22.3497 -10.7812 -5.06065
RightFoot  -12.1968 0.00138889 11.3485
RightToes  -1.74624e-010 0 -3.6325e-017
Spine  3.9732 0.387528 -2.84355
Spine1  24.9816 0.606699 -0.0981507
HEad  -12.0778 23.895 -12.0692
LeftShoulder1  1.08743 -1.22347 -16.2567
LeftArm  15.6422 8.30773 -60.2933
LeftForeArm  61.0697 -78.8993 -74.8056
LeftHand  -2.20633 -2.42797 32.2386
RightShoulder  0.627756 -0.0743602 11.2013
RightArm  11.2458 -9.43374 61.2492
RightForeArm  145.697 67.7025 153.273
RightHand  -1.05266 4.43739 -12.6662
LeftUpLeg  -8.67186 5.18763 2.81804
LeftLeg  18.8258 10.044 4.11268
LeftFoot  -8.5167 0.283216 -9.39675
LeftToes  3.7286e-011 -1.5702e-010 -9.70233e-012
477
root  -6.28708 39.4856 11.4365 -179.263 30.6287 176.78
RightUpLeg  -6.30335 -5.03808 -3.53321
RightLeg  21.7561 -10.9709 -5.03083
RightFoot  -11.234 -0.087591 11.5537
RightToes  -1.74624e-010 0 -3.6325e-017
Spine  3.47912 0.273831 -3.15228
Spine1  25.0862 0.321895 0.306521
HEad  -11.5193 24.208 -11.4341
LeftShoulder1  1.04621 -0.968035 -16.6774
LeftArm  16.5994 10.9725 -60.9637
LeftForeArm  65.0146 -79.0793 -78.1495
LeftHand  -2.1417 -2.50043 31.0759
RightShoulder  0.589371 -0.308369 11.364
RightArm  10.7835 -10.4515 61.2347
RightForeArm  146.517 66.9082 154.334
RightHand  -0.991456 4.22148 -12.2058
LeftUpLeg  -8.65796 4.2842 2.78947
LeftLeg  18.5224 10.9973 4.40058
LeftFoot  -7.73445 0.353271 -9.73535
LeftToes  3.7286e-011 -1.5702e-010 -9.70233e-012
478
root  -6.28147 39.5451 11.3881 -178.961 30.3003 176.832
RightUpLeg  -6.33776 -4.95793 -3.44868
RightLeg  21.4514 -11.306 -5.11472
RightFoot  -10.6556 -0.143306 11.7916
RightToes  -1.74624e-010 0 -3.6325e-017
Spine  2.63613 -0.0705269 -3.15931
Spine1  25.3084 -0.0690729 0.388282
HEad  -11.0775 24.2917 -10.9642
LeftShoulder1  0.990929 -0.729834 -16.6868
LeftArm  17.968 12.6413 -61.4261
LeftForeArm  69.0546 -79.2371 -80.6168
LeftHand  -2.10341 -2.78105 29.5534
RightShoulder  0.562135 -0.477671 11.5168
RightArm  10.4414 -11.8465 61.0536
RightForeArm  146.625 66.0305 155.342
RightHand  -0.925314 3.8949 -11.7967
LeftUpLeg  -8.75438 2.70132 2.72091
LeftLeg  18.3692 11.3137 4.48127
LeftFoot  -7.82343 0.358444 -10.1383
LeftToes  3.7286e-011 -1.5702e-010 -9.70233e-012
479
root  -6.30653 39.5363 11.2966 -178.744 29.7149 176.886
RightUpLeg  -6.28377 -5.36244 -3.49203
RightLeg  21.3783 -11.5499 -5.19425
RightFoot  -10.7466 -0.134611 11.7723
RightToes  -1.74624e-010 0 -3.6325e-017
Spine  1.92498 -0.507629 -3.10331
Spine1  25.3832 -0.577899 0.520301
HEad  -10.7194 24.257 -10.8666
LeftShoulder1  0.949686 -0.59254 -16.4455
LeftArm  19.4474 13.2375 -61.7499
LeftForeArm  70.7038 -79.3048 -81.0333
LeftHand  -2.06827 -3.04444 28.2168
RightShoulder  0.558033 -0.511376 11.5994
RightArm  10.3888 -13.2336 60.595
RightForeArm  146.724 65.4113 156.013
RightHand  -0.886519 3.68664 -11.5622
LeftUpLeg  -8.72993 1.09874 2.58845
LeftLeg  18.3253 10.6816 4.24374
LeftFoot  -8.7249 0.286947 -10.2495
LeftToes  3.7286e-011 -1.5702e-010 -9.70233e-012
480
root  -6.3575 39.4757 11.1979 -179.012 29.2065 176.782
RightUpLeg  -5.93821 -5.51473 -3.75393
RightLeg  21.6165 -11.889 -5.3922
RightFoot  -11.3802 -0.0732251 11.9367
RightToes  -1.74624e-010 0 -3.6325e-017
Spine  1.88802 -0.826149 -3.41775
Spine1  25.1387 -1.0908 0.908349
HEad  -10.4911 24.2851 -10.9485
LeftShoulder1  0.931607 -0.552763 -16.2077
LeftArm  20.7857 12.8347 -61.8065
LeftForeArm  70.4927 -79.3014 -80.6389
LeftHand  -2.02938 -3.12837 27.4515
RightShoulder  0.566212 -0.475853 11.6557
RightArm  10.6671 -14.2957 59.8875
RightForeArm  147.188 65.103 156.38
RightHand  -0.884861 3.73315 -11.4848
LeftUpLeg  -8.17966 0.176582 2.30087
LeftLeg  18.0665 9.85518 3.89511
LeftFoot  -9.77286 0.194896 -9.93763
LeftToes  3.7286e-011 -1.5702e-010 -9.70233e-012
